<svg id="Capa_1" enable-background="new 0 0 514.407 514.407" height="512" viewBox="0 0 514.407 514.407" width="512" xmlns="http://www.w3.org/2000/svg"><g><path d="m512 257.204c0 93.21-49.81 174.78-124.26 219.54-38.49 23.15-83.56-10.38-131.74-10.38s-93.25 33.53-131.74 10.38c-74.45-44.76-124.26-126.33-124.26-219.54 0-141.38 114.62-256 256-256s256 114.62 256 256z" fill="#734d9d"/><g fill="#f5de58"><g><path d="m79.493 226.551c-11.046 0-20-8.954-20-20v-.5c0-11.046 8.954-20 20-20s20 8.954 20 20v.5c0 11.046-8.954 20-20 20z"/><path d="m79.493 179.218c-11.046 0-20-8.954-20-20v-29.765c0-11.046 8.954-20 20-20 9.443 0 18.231-3.779 24.746-10.641 6.509-6.855 9.823-15.851 9.332-25.328-.921-17.739-15.576-31.916-33.364-32.274-17.332-.379-32.126 12.263-34.509 29.332-.219 1.57-.33 3.181-.33 4.786 0 11.046-8.954 20-20 20s-20-8.954-20-20c0-3.448.24-6.918.714-10.312 5.181-37.128 37.4-64.521 74.931-63.798 38.654.779 70.502 31.612 72.504 70.193 1.066 20.541-6.133 40.053-20.27 54.943-9.25 9.742-20.99 16.728-33.754 20.324v12.539c0 11.047-8.954 20.001-20 20.001z"/></g><g><path d="m440.28 331.882c-11.046 0-20-8.954-20-20v-.5c0-11.046 8.954-20 20-20s20 8.954 20 20v.5c0 11.046-8.954 20-20 20z"/><path d="m440.28 284.549c-11.046 0-20-8.954-20-20v-29.765c0-11.046 8.954-20 20-20 9.443 0 18.231-3.779 24.746-10.641 6.509-6.855 9.823-15.851 9.332-25.328-.921-17.739-15.576-31.916-33.364-32.274-17.332-.379-32.126 12.263-34.509 29.332-.219 1.57-.33 3.181-.33 4.786 0 11.046-8.954 20-20 20s-20-8.954-20-20c0-3.448.24-6.918.714-10.312 5.181-37.128 37.4-64.521 74.931-63.798 38.654.779 70.502 31.612 72.504 70.193 1.066 20.541-6.133 40.053-20.27 54.943-9.25 9.742-20.99 16.728-33.754 20.324v12.539c0 11.047-8.954 20.001-20 20.001z"/></g><g><path d="m107.753 439.984c-7.98 0-14.448-6.469-14.448-14.448v-.361c0-7.98 6.469-14.448 14.448-14.448s14.448 6.469 14.448 14.448v.361c.001 7.979-6.468 14.448-14.448 14.448z"/><path d="m107.753 405.789c-7.98 0-14.448-6.469-14.448-14.448v-21.503c0-7.98 6.469-14.448 14.448-14.448 6.822 0 13.171-2.73 17.877-7.687 4.702-4.953 7.097-11.451 6.741-18.298-.665-12.815-11.252-23.057-24.103-23.316-12.521-.274-23.209 8.859-24.93 21.19-.158 1.134-.238 2.298-.238 3.458 0 7.98-6.469 14.448-14.448 14.448s-14.448-6.469-14.448-14.448c0-2.491.174-4.998.516-7.45 3.743-26.822 27.019-46.612 54.132-46.089 27.925.563 50.932 22.837 52.379 50.709.77 14.839-4.43 28.935-14.644 39.692-6.683 7.038-15.164 12.084-24.385 14.683v9.059c0 7.98-6.469 14.448-14.449 14.448z"/></g></g><g><path d="m359.847 439.251c-9.437 6.722-19.373 12.774-29.753 18.101-19.232 9.889-39.972-.264-61.778 4.167-8.07 1.65-16.281 2.885-24.624 3.696-7.796.763-15.706 1.15-23.71 1.15-4.77 0-9.493-.141-14.179-.405-8.089-.471-16.055-12.35-23.908-13.594-10.144-1.612-3.453-9.809-13.134-12.637l-16.618.221c0-28.339 11.341-54.019 29.753-72.761 6.788-6.92 14.546-12.897 23.05-17.705 15.074-8.532 32.496-13.396 51.059-13.396 18.553 0 35.965 4.864 51.04 13.396 8.513 4.799 16.272 10.775 23.05 17.695 18.26 18.581 29.564 44.006 29.752 72.072z" fill="#dd636e"/><path d="m291.614 281.598v63.835c0 19.667-15.955 35.623-35.609 35.623-4.832 0-9.435-.959-13.633-2.7-12.904-5.359-21.989-18.075-21.989-32.923v-63.835z" fill="#ffddce"/><path d="m348.699 261.106h-185.398c-29.584 0-53.567-23.983-53.567-53.567 0-18.5 14.997-33.498 33.498-33.498h225.538c18.5 0 33.498 14.997 33.498 33.498-.001 29.584-23.984 53.567-53.569 53.567z" fill="#ffddce"/><path d="m163.301 243.047c-19.579 0-35.508-15.929-35.508-35.509 0-8.513 6.926-15.439 15.438-15.439h225.539c8.513 0 15.438 6.926 15.438 15.439 0 19.579-15.929 35.509-35.508 35.509z" fill="#ffcbbe"/><path d="m256 52.276c-57.359 0-103.858 46.499-103.858 103.857v76.39c0 57.359 46.499 103.857 103.857 103.857 57.359 0 103.857-46.499 103.857-103.857v-76.39c.002-57.358-46.497-103.857-103.856-103.857z" fill="#ffddce"/><path d="m282.836 332.878c-8.56 2.284-17.553 3.503-26.836 3.503-57.365 0-103.857-46.493-103.857-103.857v-76.39c0-57.355 46.493-103.857 103.857-103.857 9.282 0 18.276 1.219 26.836 3.503-44.353 11.829-77.031 52.281-77.031 100.354v76.39c0 48.082 32.678 88.534 77.031 100.354z" fill="#ffcbbe"/><circle cx="211.749" cy="173.134" fill="#f9f6f9" r="30.765"/><path d="m219.471 202.919c-2.476.637-5.055.976-7.726.976-16.994 0-30.761-13.767-30.761-30.761s13.768-30.761 30.761-30.761c2.671 0 5.25.339 7.726.976-13.264 3.421-23.055 15.453-23.055 29.785-.001 14.333 9.791 26.364 23.055 29.785z" fill="#dddaec"/><circle cx="300.251" cy="173.134" fill="#f9f6f9" r="30.765"/><path d="m307.973 202.919c-2.476.637-5.055.976-7.726.976-16.994 0-30.761-13.767-30.761-30.761s13.768-30.761 30.761-30.761c2.671 0 5.25.339 7.726.976-13.264 3.421-23.055 15.453-23.055 29.785 0 14.333 9.791 26.364 23.055 29.785z" fill="#dddaec"/><path d="m256 229.208c-5.946 0-10.766-4.82-10.766-10.766v-151.613h21.532v151.613c0 5.946-4.82 10.766-10.766 10.766z" fill="#ffcbbe"/><circle cx="213.115" cy="177.848" fill="#454045" r="12.284"/><circle cx="298.885" cy="177.848" fill="#454045" r="12.284"/><path d="m242.37 322.819v55.531c-12.902-5.354-21.983-18.075-21.983-32.912v-39.693z" fill="#ffcbbe"/><path d="m422.399 120.341h-119.133c-20.652 0-38.852-10.525-49.537-26.495h-37.728c-1.239 6.444-3.78 12.42-7.339 17.642-5.179 7.569-12.499 13.553-21.086 17.094-.159 26.92-22.024 48.696-48.988 48.696-27.052 0-48.988-21.936-48.988-48.988h24.414c-8.613-17.306-5.727-38.879 8.693-53.299l20.245 20.236c8.861-38.064 42.907-66.453 83.645-66.586h26.521c10.596-16.501 29.088-27.433 50.148-27.433v34.895c23.264-23.264 60.983-23.264 84.238 0l-24.671 24.671c32.895.001 59.566 26.663 59.566 59.567z" fill="#665e66"/><path d="m199.138 79.054c0 11.95 3.497 23.087 9.525 32.434-5.179 7.569-12.499 13.553-21.086 17.094-.159 26.92-22.024 48.696-48.988 48.696-27.052 0-48.988-21.936-48.988-48.988h24.414c-8.613-17.306-5.727-38.879 8.693-53.299l20.245 20.236c8.861-38.064 42.907-66.453 83.645-66.586-16.528 10.685-27.46 29.274-27.46 50.413z" fill="#454045"/><path d="m275.545 262.127c0-5.415 4.389-9.804 9.804-9.804h16.457c5.415 0 9.804 4.389 9.804 9.804 0 5.415-4.389 9.804-9.804 9.804h-16.457c-5.415 0-9.804-4.39-9.804-9.804z" fill="#f9f6f9"/></g><path d="m369.858 366.306h-227.716c-16.899 0-32.358 19.722-27.438 44.651l7.499 45.086 41.261 10.321 175.027-17.654 51.889 3.848 6.919-41.601c3.872-30.012-10.541-44.651-27.441-44.651z" fill="#dddaec"/><path d="m397.3 410.954-9.56 65.79c-38.49 23.15-83.56 36.46-131.74 36.46s-93.25-13.31-131.74-36.46l-9.56-65.79c-2.43-16.72 10.54-31.71 27.44-31.71h227.72c16.9 0 29.87 14.99 27.44 31.71z" fill="#f9f6f9"/><path d="m274.455 433.097h-36.91c-7.251 0-13.129 5.878-13.129 13.129 0 7.251 5.878 13.129 13.129 13.129h36.91c7.251 0 13.129-5.878 13.129-13.129.001-7.251-5.878-13.129-13.129-13.129z" fill="#756e78"/></g></svg>